<svg width="147" height="104" viewBox="0 0 147 104" fill="none" xmlns="http://www.w3.org/2000/svg">
<path d="M28.1841 52.4959C21.6364 50.8278 14.7244 52.2466 9.41342 56.2155C8.93409 56.5702 8.46434 56.9537 8.01377 57.3563C6.64288 58.5738 5.41578 59.9639 4.36125 61.5169C4.08323 61.9963 3.81481 62.4756 3.56555 62.9645C3.55597 62.9837 3.54638 63.0124 3.52721 63.0316C2.76986 64.5271 2.14672 66.0898 1.67698 67.7003V67.7195C1.04426 69.8765 0.670377 72.1102 0.57451 74.3727C0.382777 79.0414 1.36062 83.8155 3.67101 88.2446C10.7172 101.762 27.3789 107.006 40.8961 99.9595L78.4183 80.4027L33.8403 54.7487C31.9996 53.7134 30.1302 52.9848 28.1841 52.4767V52.4959Z" fill="#FFB519"/>
<path d="M118.606 51.5277C127.224 53.7039 136.571 50.3677 141.853 43.2256C141.901 43.1489 141.959 43.0627 142.007 42.986C144.25 39.3334 145.698 35.0769 146.1 30.7917C146.1 30.7246 146.11 30.6575 146.119 30.6C146.167 30.0056 146.206 29.4112 146.215 28.8169C146.292 24.359 145.295 19.8245 143.09 15.5968C136.044 2.07961 119.382 -3.1643 105.865 3.88191L68.199 23.5058L112.95 49.2556C114.761 50.291 116.66 51.0196 118.606 51.5277Z" fill="#FFB519"/>
<path d="M146.119 30.5904C146.119 30.6575 146.11 30.7246 146.1 30.7822C145.707 35.1058 144.308 39.2951 142.007 42.9764C141.978 43.0243 141.949 43.0819 141.911 43.1394C141.892 43.1681 141.873 43.1969 141.853 43.2161C139.342 47.1466 135.804 50.502 131.375 52.8123L78.4183 80.4124L112.95 100.286C123.562 106.392 137.108 102.759 143.234 92.1848C144.979 89.1458 145.909 85.8768 146.148 82.6077H146.215V28.8169C146.206 29.4113 146.167 30.0056 146.119 30.6V30.5904Z" fill="#FFE00B"/>
<path d="M1.67702 67.71C2.14676 66.0995 2.7699 64.5464 3.52724 63.0413C3.53683 63.0222 3.54642 62.9934 3.56559 62.9742C3.81485 62.4853 4.07369 61.9964 4.36129 61.5266C4.07369 61.958 4.07369 61.9485 4.36129 61.5266C6.89217 57.203 10.631 53.5218 15.3955 51.0388L68.2086 23.5155L33.8307 3.72858C23.2279 -2.37814 9.64354 1.22645 3.54642 11.8006C1.4757 15.4051 0.507442 19.3069 0.574549 23.1704V74.3728C0.670416 72.1103 1.0443 69.8766 1.67702 67.7196V67.7005V67.71Z" fill="#FFE00B"/>
<path d="M141.853 43.2257C136.571 50.3677 127.224 53.7039 118.606 51.5277C116.669 51.0292 114.761 50.291 112.949 49.2557L68.1989 23.5059L15.3859 51.0292C10.6213 53.5122 6.88251 57.203 4.35162 61.517C5.40616 59.9544 6.63325 58.5739 8.00415 57.3564C8.45472 56.9538 8.92447 56.5799 9.4038 56.2156C14.7244 52.2467 21.6364 50.8183 28.1745 52.496C30.111 52.9945 31.99 53.7326 33.8307 54.768L78.4087 80.422L131.365 52.8219C135.795 50.5115 139.332 47.1562 141.844 43.2257H141.853Z" fill="#FFE00B"/>
</svg>
