<svg width="496" height="104" viewBox="0 0 496 104" fill="none" xmlns="http://www.w3.org/2000/svg">
<path d="M28.3429 52.496C21.7952 50.8279 14.8833 52.2467 9.57224 56.2156C9.0929 56.5703 8.62316 56.9538 8.17258 57.3564C6.80169 58.5739 5.57459 59.964 4.52006 61.517C4.24205 61.9964 3.97362 62.4757 3.72437 62.9646C3.71478 62.9838 3.70519 63.0126 3.68602 63.0317C2.92867 64.5273 2.30554 66.0899 1.83579 67.7004V67.7196C1.20307 69.8766 0.82919 72.1103 0.733324 74.3728C0.54159 79.0415 1.51943 83.8156 3.82982 88.2447C10.876 101.762 27.5377 107.006 41.0549 99.9596L78.5771 80.4028L33.9991 54.7489C32.1584 53.7135 30.289 52.9849 28.3429 52.4768V52.496Z" fill="#FFB519"/>
<path d="M118.765 51.5278C127.383 53.704 136.73 50.3678 142.012 43.2257C142.06 43.1491 142.118 43.0628 142.166 42.9861C144.409 39.3336 145.856 35.0771 146.259 30.7918C146.259 30.7247 146.269 30.6576 146.278 30.6001C146.326 30.0057 146.365 29.4113 146.374 28.817C146.451 24.3592 145.454 19.8247 143.249 15.5969C136.203 2.07973 119.541 -3.16418 106.024 3.88203L68.3578 23.506L113.108 49.2558C114.92 50.2911 116.818 51.0197 118.765 51.5278Z" fill="#FFB519"/>
<path d="M146.278 30.5906C146.278 30.6577 146.269 30.7248 146.259 30.7823C145.866 35.1059 144.466 39.2953 142.166 42.9765C142.137 43.0245 142.108 43.082 142.07 43.1395C142.051 43.1683 142.031 43.197 142.012 43.2162C139.5 47.1467 135.963 50.5021 131.534 52.8125L78.5771 80.4125L113.108 100.286C123.721 106.392 137.267 102.759 143.393 92.1849C145.137 89.146 146.067 85.8769 146.307 82.6079H146.374V28.817C146.365 29.4114 146.326 30.0058 146.278 30.6001V30.5906Z" fill="#FFE00B"/>
<path d="M1.83583 67.7102C2.30558 66.0996 2.92871 64.5466 3.68606 63.0415C3.69565 63.0223 3.70523 62.9935 3.72441 62.9744C3.97366 62.4854 4.2325 61.9965 4.5201 61.5268C4.2325 61.9582 4.2325 61.9486 4.5201 61.5268C7.05098 57.2032 10.7898 53.5219 15.5544 51.0389L68.3674 23.5156L33.9895 3.7287C23.3867 -2.37801 9.80236 1.22658 3.70523 11.8007C1.63451 15.4053 0.666256 19.307 0.733362 23.1705V74.3729C0.829229 72.1105 1.20311 69.8768 1.83583 67.7198V67.7006V67.7102Z" fill="#FFE00B"/>
<path d="M142.012 43.2258C136.73 50.3678 127.383 53.704 118.764 51.5278C116.828 51.0293 114.92 50.2912 113.108 49.2558L68.3578 23.506L15.5448 51.0293C10.7802 53.5123 7.04138 57.2031 4.5105 61.5171C5.56503 59.9545 6.79213 58.574 8.16302 57.3565C8.6136 56.9539 9.08334 56.58 9.56268 56.2157C14.8833 52.2468 21.7953 50.8184 28.3334 52.4961C30.2699 52.9946 32.1489 53.7328 33.9895 54.7681L78.5676 80.4221L131.524 52.822C135.953 50.5116 139.491 47.1563 142.003 43.2258H142.012Z" fill="#FFE00B"/>
<path d="M188.762 9.45593H200.353C201.264 9.45593 202.11 9.94318 202.572 10.7382L227.575 54.0131H228.511L253.514 10.7382C253.976 9.94318 254.822 9.45593 255.732 9.45593H267.439C268.85 9.45593 270.004 10.6099 270.004 12.0204V91.0565C270.004 92.4669 268.85 93.6209 267.439 93.6209H256.822C255.412 93.6209 254.258 92.4669 254.258 91.0565V52.1282L255.194 38.0238H254.258L233.601 74.4517C233.14 75.2595 232.293 75.7467 231.37 75.7467H224.831C223.908 75.7467 223.061 75.2467 222.6 74.4517L201.828 38.0238H200.892L201.828 52.1282V91.0565C201.828 92.4669 200.674 93.6209 199.263 93.6209H188.762C187.352 93.6209 186.198 92.4669 186.198 91.0565V12.0204C186.198 10.6099 187.352 9.45593 188.762 9.45593Z" fill="#424346"/>
<path d="M318.792 87.5175H317.856C316.048 89.7101 313.881 91.595 311.33 93.1593C308.778 94.7236 305.508 95.5057 301.508 95.5057C298.533 95.5057 295.725 95.0185 293.109 94.0312C290.481 93.0567 288.185 91.6976 286.236 89.9794C284.275 88.2612 282.749 86.184 281.646 83.7478C280.543 81.3244 280.005 78.6574 280.005 75.7595C280.005 72.8617 280.595 70.105 281.774 67.7072C282.954 65.3223 284.595 63.2579 286.711 61.5397C288.827 59.8215 291.314 58.5009 294.173 57.6033C297.033 56.7058 300.149 56.257 303.521 56.257C307.278 56.257 310.381 56.5519 312.804 57.1417C315.227 57.7315 317.228 58.3342 318.805 58.9625V57.193C318.805 54.1413 317.587 51.6153 315.163 49.6151C312.727 47.6148 309.714 46.6147 306.111 46.6147C301.456 46.6147 297.417 48.32 294.02 51.7436C293.148 52.6155 291.776 52.7565 290.763 52.0641L283.813 47.3071C282.518 46.4223 282.3 44.5759 283.377 43.4476C289.275 37.2545 296.969 34.1515 306.47 34.1515C315.407 34.1515 322.228 36.2543 326.921 40.4344C331.627 44.6272 333.974 50.8332 333.974 59.065V91.0565C333.974 92.4669 332.82 93.6209 331.409 93.6209H321.369C319.959 93.6209 318.805 92.4669 318.805 91.0565V87.5047L318.792 87.5175ZM318.792 70.2332C316.984 69.3741 315.125 68.6817 313.214 68.1816C311.291 67.6687 309.201 67.4123 306.932 67.4123C303.252 67.4123 300.405 68.2201 298.405 69.8229C296.404 71.4256 295.404 73.4131 295.404 75.7595C295.404 78.106 296.366 79.9909 298.289 81.4013C300.213 82.8118 302.418 83.517 304.931 83.517C306.97 83.517 308.842 83.1451 310.573 82.4015C312.291 81.6578 313.766 80.6833 314.984 79.4652C316.202 78.2471 317.138 76.8366 317.805 75.2338C318.471 73.6311 318.805 71.9642 318.805 70.2332H318.792Z" fill="#424346"/>
<path d="M354.758 28.2661C353.425 28.2661 352.155 28.0097 350.937 27.4968C349.719 26.9839 348.668 26.2787 347.77 25.3811C346.873 24.4836 346.167 23.445 345.655 22.2653C345.142 21.0857 344.885 19.7906 344.885 18.3802C344.885 16.9697 345.142 15.6747 345.655 14.4951C346.167 13.3154 346.873 12.2768 347.77 11.3793C348.668 10.4817 349.732 9.77648 350.937 9.2636C352.155 8.75071 353.425 8.49426 354.758 8.49426C357.502 8.49426 359.849 9.45593 361.811 11.3793C363.772 13.3026 364.747 15.6362 364.747 18.3674C364.747 21.0985 363.772 23.445 361.811 25.3683C359.849 27.2916 357.502 28.2533 354.758 28.2533V28.2661ZM347.116 91.0565V38.588C347.116 37.1775 348.27 36.0235 349.681 36.0235H359.951C361.362 36.0235 362.516 37.1775 362.516 38.588V91.0565C362.516 92.4669 361.362 93.6209 359.951 93.6209H349.681C348.27 93.6209 347.116 92.4669 347.116 91.0565Z" fill="#424346"/>
<path d="M374.402 36.0234H386.288C387.34 36.0234 388.288 36.6646 388.673 37.6519L402.38 72.695H403.201L417.023 37.639C417.408 36.6646 418.357 36.0106 419.408 36.0106H431.166C433.012 36.0106 434.256 37.8955 433.525 39.588L410.933 92.0565C410.522 92.9925 409.599 93.608 408.573 93.608H396.79C395.764 93.608 394.828 92.9925 394.43 92.0437L372.056 39.5752C371.338 37.8827 372.581 36.0106 374.415 36.0106L374.402 36.0234Z" fill="#424346"/>
<path d="M492.341 78.4906C493.725 79.183 494.213 80.9524 493.341 82.2347C490.892 85.812 487.814 88.7868 484.134 91.1589C479.621 94.0567 474.12 95.5056 467.619 95.5056C463.234 95.5056 459.17 94.7363 455.451 93.2105C451.733 91.6846 448.501 89.5433 445.758 86.7994C443.014 84.0554 440.885 80.8242 439.346 77.1058C437.821 73.3873 437.051 69.2842 437.051 64.8221C437.051 60.6677 437.795 56.7313 439.282 53.0128C440.77 49.2944 442.847 46.0376 445.514 43.2551C448.181 40.4727 451.335 38.2545 454.977 36.6132C458.618 34.972 462.632 34.1385 467.03 34.1385C471.658 34.1385 475.762 34.9079 479.377 36.4337C482.98 37.9596 485.994 40.0752 488.43 42.7807C490.853 45.4862 492.7 48.6789 493.956 52.3589C495.213 56.0389 495.841 60.0394 495.841 64.3477C495.841 64.9375 495.841 65.3863 495.828 65.8863C495.777 67.2583 494.636 68.3482 493.264 68.3482H452.233C452.54 70.6947 453.194 72.7206 454.169 74.4003C455.143 76.08 456.362 77.5033 457.81 78.6316C459.259 79.7728 460.849 80.5934 462.567 81.1063C464.286 81.6192 466.055 81.8756 467.863 81.8756C471.389 81.8756 474.313 81.0678 476.621 79.4651C478.313 78.2982 479.736 76.9006 480.903 75.285C481.647 74.2464 483.006 73.8617 484.16 74.4387L492.366 78.5034L492.341 78.4906ZM480.89 57.4237C480.813 56.4107 480.48 55.2695 479.89 54.013C479.3 52.7564 478.441 51.5896 477.3 50.4869C476.159 49.3842 474.749 48.4866 473.069 47.7814C471.389 47.0762 469.363 46.73 467.017 46.73C463.721 46.73 460.824 47.666 458.323 49.5508C455.823 51.4357 454.054 54.0643 453.041 57.4237H480.903H480.89Z" fill="#424346"/>
</svg>
